<?xml version="1.0" encoding="utf-8"?>
<!-- Generator: Adobe Illustrator 16.0.0, SVG Export Plug-In . SVG Version: 6.00 Build 0)  -->
<!DOCTYPE svg PUBLIC "-//W3C//DTD SVG 1.1//EN" "http://www.w3.org/Graphics/SVG/1.1/DTD/svg11.dtd">
<svg version="1.1" id="Capa_1" xmlns="http://www.w3.org/2000/svg" xmlns:xlink="http://www.w3.org/1999/xlink" x="0px" y="0px"
	 width="573.75px" height="573.75px" viewBox="0 0 573.75 573.75" enable-background="new 0 0 573.75 573.75" xml:space="preserve">
<g>
	<g>
		<path fill="#0FA24A" d="M229.5,296.438h19.125c11.475,0,19.125,7.65,19.125,19.125h19.125c0-21.037-17.213-38.25-38.25-38.25
			H229.5c-21.038,0-38.25,17.212-38.25,38.25v57.375c0,21.037,17.212,38.25,38.25,38.25h19.125c21.037,0,38.25-17.213,38.25-38.25
			H267.75c0,11.476-7.65,19.125-19.125,19.125H229.5c-11.475,0-19.125-7.649-19.125-19.125v-57.375
			C210.375,304.088,218.025,296.438,229.5,296.438z"/>
		<path fill="#0FA24A" d="M516.375,219.938h-153v-57.375L248.625,28.688H38.25C17.212,28.688,0,45.9,0,66.938v439.875
			c0,21.037,17.212,38.25,38.25,38.25h286.875c21.037,0,38.25-17.213,38.25-38.25v-38.25h153c32.513,0,57.375-24.861,57.375-57.375
			V277.312C573.75,244.8,548.888,219.938,516.375,219.938z M248.625,57.375l89.888,105.188H267.75
			c-9.562,0-19.125-9.562-19.125-19.125V57.375z M344.25,506.812c0,9.562-7.65,19.125-19.125,19.125H38.25
			c-9.562,0-19.125-7.65-19.125-19.125V66.938c0-9.562,7.65-19.125,19.125-19.125H229.5v95.625c0,21.038,17.212,38.25,38.25,38.25
			h76.5v38.25h-153c-32.513,0-57.375,24.862-57.375,57.375v133.875c0,32.514,24.862,57.375,57.375,57.375h153V506.812z
			 M554.625,411.188c0,21.037-17.213,38.25-38.25,38.25H191.25c-21.038,0-38.25-17.213-38.25-38.25V277.312
			c0-21.038,17.212-38.25,38.25-38.25h325.125c21.037,0,38.25,17.212,38.25,38.25V411.188z"/>
		<path fill="#0FA24A" d="M459,296.438h19.125c11.475,0,19.125,9.562,19.125,19.125h19.125c0-21.037-17.213-38.25-38.25-38.25H459
			c-21.037,0-38.25,17.212-38.25,38.25s17.213,38.25,38.25,38.25h19.125c11.475,0,19.125,7.65,19.125,19.125
			c0,11.476-7.65,19.125-19.125,19.125H459c-11.475,0-19.125-9.562-19.125-19.125l0,0H420.75l0,0c0,21.037,17.213,38.25,38.25,38.25
			h19.125c21.037,0,38.25-17.213,38.25-38.25s-17.213-38.25-38.25-38.25H459c-11.475,0-19.125-7.649-19.125-19.125
			C439.875,304.088,447.525,296.438,459,296.438z"/>
		<path fill="#0FA24A" d="M344.25,296.438h19.125c11.475,0,19.125,9.562,19.125,19.125h19.125c0-21.037-17.213-38.25-38.25-38.25
			H344.25c-21.037,0-38.25,17.212-38.25,38.25s17.213,38.25,38.25,38.25h19.125c11.475,0,19.125,7.65,19.125,19.125
			c0,11.476-7.65,19.125-19.125,19.125H344.25c-11.475,0-19.125-9.562-19.125-19.125l0,0H306l0,0c0,21.037,17.213,38.25,38.25,38.25
			h19.125c21.037,0,38.25-17.213,38.25-38.25s-17.213-38.25-38.25-38.25H344.25c-11.475,0-19.125-7.649-19.125-19.125
			C325.125,304.088,332.775,296.438,344.25,296.438z"/>
	</g>
</g>
</svg>
