<?xml version="1.0" encoding="utf-8"?>
<!-- Generator: Adobe Illustrator 16.0.0, SVG Export Plug-In . SVG Version: 6.00 Build 0)  -->
<!DOCTYPE svg PUBLIC "-//W3C//DTD SVG 1.1//EN" "http://www.w3.org/Graphics/SVG/1.1/DTD/svg11.dtd">
<svg version="1.1" id="Capa_1" xmlns="http://www.w3.org/2000/svg" xmlns:xlink="http://www.w3.org/1999/xlink" x="0px" y="0px"
	 width="612px" height="612px" viewBox="0 0 612 612" enable-background="new 0 0 612 612" xml:space="preserve">
<g>
	<g>
		<polygon fill="#80C1ED" points="191.25,353.812 133.875,353.812 133.875,296.438 114.75,296.438 114.75,430.312 133.875,430.312 
			133.875,372.938 191.25,372.938 191.25,430.312 210.375,430.312 210.375,296.438 191.25,296.438 		"/>
		<polygon fill="#80C1ED" points="229.5,315.562 267.75,315.562 267.75,430.312 286.875,430.312 286.875,315.562 325.125,315.562 
			325.125,296.438 229.5,296.438 		"/>
		<path fill="#80C1ED" d="M554.625,239.062h-191.25v-57.375L248.625,47.812H38.25C17.212,47.812,0,65.025,0,86.062v439.875
			c0,21.036,17.212,38.25,38.25,38.25h286.875c21.037,0,38.25-17.214,38.25-38.25v-38.25h191.25
			c32.513,0,57.375-24.862,57.375-57.375V296.438C612,263.925,587.138,239.062,554.625,239.062z M248.625,76.5l89.888,105.188
			H267.75c-9.562,0-19.125-9.562-19.125-19.125V76.5z M344.25,525.938c0,9.562-7.65,19.125-19.125,19.125H38.25
			c-9.562,0-19.125-7.649-19.125-19.125V86.062c0-9.562,7.65-19.125,19.125-19.125H229.5v95.625c0,21.038,17.212,38.25,38.25,38.25
			h76.5v38.25h-229.5c-32.513,0-57.375,24.862-57.375,57.375v133.875c0,32.513,24.862,57.375,57.375,57.375h229.5V525.938z
			 M592.875,430.312c0,21.036-17.213,38.25-38.25,38.25H114.75c-21.038,0-38.25-17.214-38.25-38.25V296.438
			c0-21.038,17.212-38.25,38.25-38.25h439.875c21.037,0,38.25,17.212,38.25,38.25V430.312z"/>
		<polygon fill="#80C1ED" points="478.125,296.438 459,296.438 459,430.312 554.625,430.312 554.625,411.188 478.125,411.188 		"/>
		<polygon fill="#80C1ED" points="420.75,296.438 392.062,353.812 363.375,296.438 353.812,296.438 344.25,296.438 344.25,430.312 
			363.375,430.312 363.375,334.688 382.5,372.938 392.062,372.938 401.625,372.938 420.75,334.688 420.75,430.312 439.875,430.312 
			439.875,296.438 430.312,296.438 		"/>
	</g>
</g>
</svg>
