<?xml version="1.0" encoding="utf-8"?>
<!-- Generator: Adobe Illustrator 16.0.0, SVG Export Plug-In . SVG Version: 6.00 Build 0)  -->
<!DOCTYPE svg PUBLIC "-//W3C//DTD SVG 1.1//EN" "http://www.w3.org/Graphics/SVG/1.1/DTD/svg11.dtd">
<svg version="1.1" id="Capa_1" xmlns="http://www.w3.org/2000/svg" xmlns:xlink="http://www.w3.org/1999/xlink" x="0px" y="0px"
	 width="612px" height="612px" viewBox="0 0 612 612" enable-background="new 0 0 612 612" xml:space="preserve">
<g>
	<g>
		<path fill="#D01F3D" d="M286.875,296.438H267.75c-21.038,0-38.25,17.212-38.25,38.25v28.688v66.938h19.125v-57.375H306v57.375
			h19.125v-57.375v-38.25C325.125,313.65,307.912,296.438,286.875,296.438z M306,353.812h-57.375v-19.125
			c0-11.476,7.65-19.125,19.125-19.125h19.125c11.475,0,19.125,7.649,19.125,19.125V353.812z"/>
		<path fill="#D01F3D" d="M191.25,392.062c0,9.562-7.65,19.125-19.125,19.125H153c-11.475,0-19.125-7.65-19.125-19.125v-19.125
			H114.75v19.125c0,21.036,17.212,38.25,38.25,38.25h19.125c21.038,0,38.25-17.214,38.25-38.25v-95.625H191.25V392.062z"/>
		<polygon fill="#D01F3D" points="392.062,395.889 363.375,296.438 344.25,296.438 382.5,430.312 392.062,430.312 401.625,430.312 
			439.875,296.438 420.75,296.438 		"/>
		<path fill="#D01F3D" d="M554.625,239.062h-191.25v-57.375L248.625,47.812H38.25C17.212,47.812,0,65.025,0,86.062v439.875
			c0,21.036,17.212,38.25,38.25,38.25h286.875c21.037,0,38.25-17.214,38.25-38.25v-38.25h191.25
			c32.513,0,57.375-24.862,57.375-57.375V296.438C612,263.925,587.138,239.062,554.625,239.062z M248.625,76.5l89.888,105.188
			H267.75c-9.562,0-19.125-9.562-19.125-19.125V76.5z M344.25,525.938c0,9.562-7.65,19.125-19.125,19.125H38.25
			c-9.562,0-19.125-7.649-19.125-19.125V86.062c0-9.562,7.65-19.125,19.125-19.125H229.5v95.625c0,21.038,17.212,38.25,38.25,38.25
			h76.5v38.25h-229.5c-32.513,0-57.375,24.862-57.375,57.375v133.875c0,32.513,24.862,57.375,57.375,57.375h229.5V525.938z
			 M592.875,430.312c0,21.036-17.213,38.25-38.25,38.25H114.75c-21.038,0-38.25-17.214-38.25-38.25V296.438
			c0-21.038,17.212-38.25,38.25-38.25h439.875c21.037,0,38.25,17.212,38.25,38.25V430.312z"/>
		<path fill="#D01F3D" d="M516.375,296.438H497.25c-21.037,0-38.25,17.212-38.25,38.25v28.688v66.938h19.125v-57.375H535.5v57.375
			h19.125v-57.375v-38.25C554.625,313.65,537.412,296.438,516.375,296.438z M535.5,353.812h-57.375v-19.125
			c0-11.476,7.65-19.125,19.125-19.125h19.125c11.475,0,19.125,7.649,19.125,19.125V353.812z"/>
	</g>
</g>
</svg>
