<?xml version="1.0" encoding="iso-8859-1"?>
<!-- Generator: Adobe Illustrator 16.0.0, SVG Export Plug-In . SVG Version: 6.00 Build 0)  -->
<!DOCTYPE svg PUBLIC "-//W3C//DTD SVG 1.1//EN" "http://www.w3.org/Graphics/SVG/1.1/DTD/svg11.dtd">
<svg version="1.1" id="Capa_1" xmlns="http://www.w3.org/2000/svg" xmlns:xlink="http://www.w3.org/1999/xlink" x="0px" y="0px"
	 width="554.625px" height="554.625px" viewBox="0 0 554.625 554.625" style="enable-background:new 0 0 554.625 554.625;"
	 xml:space="preserve">
<g>
	<g>
		<polygon points="334.688,309.825 306,210.375 286.875,210.375 325.125,344.25 334.688,344.25 344.25,344.25 382.5,210.375 
			363.375,210.375 		"/>
		<path d="M133.875,306c0,9.562-7.65,19.125-19.125,19.125H95.625c-11.475,0-19.125-7.65-19.125-19.125v-19.125H57.375V306
			c0,21.037,17.212,38.25,38.25,38.25h19.125c21.038,0,38.25-17.213,38.25-38.25v-95.625h-19.125V306z"/>
		<path d="M229.5,210.375h-19.125c-21.038,0-38.25,17.212-38.25,38.25v28.688v66.938h19.125v-57.375h57.375v57.375h19.125v-57.375
			v-38.25C267.75,227.587,250.538,210.375,229.5,210.375z M248.625,267.75H191.25v-19.125c0-11.475,7.65-19.125,19.125-19.125H229.5
			c11.475,0,19.125,7.65,19.125,19.125V267.75z"/>
		<path d="M497.25,153H57.375C24.862,153,0,177.862,0,210.375V344.25c0,32.513,24.862,57.375,57.375,57.375H497.25
			c32.513,0,57.375-24.862,57.375-57.375V210.375C554.625,177.862,529.763,153,497.25,153z M535.5,344.25
			c0,21.037-17.213,38.25-38.25,38.25H57.375c-21.038,0-38.25-17.213-38.25-38.25V210.375c0-21.038,17.212-38.25,38.25-38.25H497.25
			c21.037,0,38.25,17.212,38.25,38.25V344.25z"/>
		<path d="M459,210.375h-19.125c-21.037,0-38.25,17.212-38.25,38.25v28.688v66.938h19.125v-57.375h57.375v57.375h19.125v-57.375
			v-38.25C497.25,227.587,480.037,210.375,459,210.375z M478.125,267.75H420.75v-19.125c0-11.475,7.65-19.125,19.125-19.125H459
			c11.475,0,19.125,7.65,19.125,19.125V267.75z"/>
	</g>
</g>
<g>
</g>
<g>
</g>
<g>
</g>
<g>
</g>
<g>
</g>
<g>
</g>
<g>
</g>
<g>
</g>
<g>
</g>
<g>
</g>
<g>
</g>
<g>
</g>
<g>
</g>
<g>
</g>
<g>
</g>
</svg>
